# xmcd
#
# Track frame offsets: 
#        150
#        19961
#        49874
#        55816
#        65339
#        69126
#        73584
#        88251
#        107424
#        170001
#        184959
#        204254
#        219394
#        242911
#        257904
#        271356
#        283601
#        294936
#        313496
#
# Disc length: 4468 seconds
#
# Revision: 3
# Processed by: cddbd v1.5.2PL0 Copyright (c) Steve Scherf et al.
# Submitted via: ExactAudioCopy v0.99pb5
#
DISCID=26117213
DTITLE=Various Artist - Carnegie Hall Concert, 16 January 1938
DYEAR=1938
DGENRE=Swing
TTITLE0=Benny Goodman and His Orchestra - Don't Be That Way
TTITLE1=Benny Goodman and His Orchestra - One O'Clock Jump
TTITLE2=Benny Goodman Ensemble - Sensation Rag
TTITLE3=Benny Goodman Ensemble - I'm Coming To Virginia
TTITLE4=Benny Goodman Ensemble - When My Baby Smiles At Me
TTITLE5=Benny Goodman and His Orchestra - Shine
TTITLE6=Benny Goodman Ensemble - Blue Reverie
TTITLE7=Benny Goodman and His Orchestra - Life Goes To A Party
TTITLE8=Benny Goodman Ensemble - Honeysuckle Rose
TTITLE9=Benny Goodman Trio - Body And Soul
TTITLE10=Benny Goodman Quartet - Avalon
TTITLE11=Benny Goodman Quartet - The Man I Love
TTITLE12=Benny Goodman Quartet - I Got Rhythm
TTITLE13=Benny Goodman and His Orchestra - Blue Skies
TTITLE14=Benny Goodman and His Orchestra - Loch Lomond
TTITLE15=Benny Goodman and His Orchestra - The Blue Room
TTITLE16=Benny Goodman and His Orchestra - Swingtime In The Rockies
TTITLE17=Benny Goodman and His Orchestra - Bei Mir Bist Du Schön
TTITLE18=Benny Goodman Trio - China Boy
EXTD=YEAR: 1938
EXTT0=
EXTT1=
EXTT2=
EXTT3=
EXTT4=
EXTT5=
EXTT6=
EXTT7=
EXTT8=
EXTT9=
EXTT10=
EXTT11=
EXTT12=
EXTT13=
EXTT14=
EXTT15=
EXTT16=
EXTT17=
EXTT18=
PLAYORDER=
